<svg width="18" height="20" viewBox="0 0 18 20" fill="none" xmlns="http://www.w3.org/2000/svg">
<path fill-rule="evenodd" clip-rule="evenodd" d="M8.80748 2.1579C8.46649 2.1579 8.16351 2.21752 7.9701 2.30412L7.96817 2.30498L2.55831 4.70732C1.84821 5.0206 1.79956 5.30404 1.79956 5.33415C1.79956 5.36426 1.84821 5.64769 2.55831 5.96097L2.55983 5.96165L7.9701 8.36417C8.16351 8.45078 8.46649 8.5104 8.80748 8.5104C9.14847 8.5104 9.45145 8.45078 9.64485 8.36418L9.64679 8.36331L15.0551 5.96165L15.0566 5.96097C15.7667 5.64769 15.8154 5.36426 15.8154 5.33415C15.8154 5.30404 15.7667 5.0206 15.0566 4.70732L9.64679 2.30498L9.64485 2.30412C9.45145 2.21752 9.14847 2.1579 8.80748 2.1579ZM10.2057 1.04872C9.78518 0.860651 9.27736 0.782898 8.80748 0.782898C8.3376 0.782898 7.82977 0.860651 7.40921 1.04872C7.40887 1.04887 7.40853 1.04902 7.40819 1.04918L2.00331 3.44931C2.00307 3.44942 2.00355 3.4492 2.00331 3.44931C1.15539 3.82357 0.424561 4.45243 0.424561 5.33415C0.424561 6.21584 1.15461 6.84436 2.00249 7.21863C2.00222 7.21851 2.00276 7.21875 2.00249 7.21863L7.40819 9.61912C7.40858 9.61929 7.40897 9.61947 7.40936 9.61964C7.82989 9.80766 8.33765 9.8854 8.80748 9.8854C9.27733 9.8854 9.78512 9.80765 10.2057 9.61961C10.206 9.61945 10.2064 9.61928 10.2068 9.61912L15.6116 7.21899C15.6114 7.21909 15.6119 7.21888 15.6116 7.21899C16.4596 6.84473 17.1904 6.21587 17.1904 5.33415C17.1904 4.45239 16.4602 3.82384 15.6123 3.44959C15.6121 3.4495 15.6125 3.44968 15.6123 3.44959L10.2068 1.04918C10.2064 1.04902 10.2061 1.04887 10.2057 1.04872Z" fill="#F1F1F1"/>
<path fill-rule="evenodd" clip-rule="evenodd" d="M0.75 8.39587C1.1297 8.39587 1.4375 8.70368 1.4375 9.08337C1.4375 9.30648 1.52576 9.59295 1.70324 9.86573C1.88071 10.1385 2.10673 10.3351 2.31104 10.4253L2.31273 10.426L8.5356 13.1938C8.53537 13.1937 8.53582 13.1939 8.5356 13.1938C8.83672 13.3268 9.174 13.3247 9.45986 13.1958L9.46311 13.1944L15.6873 10.426L15.689 10.4253C15.8933 10.3351 16.1193 10.1385 16.2968 9.86573C16.4742 9.59295 16.5625 9.30648 16.5625 9.08337C16.5625 8.70368 16.8703 8.39587 17.25 8.39587C17.6297 8.39587 17.9375 8.70368 17.9375 9.08337C17.9375 9.63026 17.737 10.1734 17.4493 10.6156C17.1617 11.0576 16.7463 11.4613 16.2451 11.6828C16.2449 11.6829 16.2454 11.6827 16.2451 11.6828L10.0251 14.4493C10.0245 14.4495 10.0239 14.4498 10.0233 14.4501C9.37481 14.7419 8.63083 14.7394 7.9794 14.4513L1.75563 11.6831C1.75532 11.683 1.755 11.6828 1.75469 11.6827C1.25359 11.4612 0.838273 11.0576 0.550718 10.6156C0.26299 10.1734 0.0625 9.63026 0.0625 9.08337C0.0625 8.70368 0.370304 8.39587 0.75 8.39587Z" fill="#F1F1F1"/>
<path fill-rule="evenodd" clip-rule="evenodd" d="M0.75 12.9791C1.1297 12.9791 1.4375 13.2869 1.4375 13.6666C1.4375 14.2448 1.77937 14.7706 2.31341 15.0096C2.31324 15.0095 2.31358 15.0097 2.31341 15.0096L8.5356 17.777C8.53537 17.7769 8.53582 17.7771 8.5356 17.777C8.83672 17.91 9.174 17.908 9.45986 17.7791L9.46311 17.7776L15.6861 15.0098C15.6859 15.0099 15.6863 15.0097 15.6861 15.0098C16.2201 14.7708 16.5625 14.2448 16.5625 13.6666C16.5625 13.2869 16.8703 12.9791 17.25 12.9791C17.6297 12.9791 17.9375 13.2869 17.9375 13.6666C17.9375 14.7932 17.2713 15.8073 16.2473 16.2651L16.2461 16.2656L10.0251 19.0325C10.0245 19.0328 10.0239 19.0331 10.0233 19.0333C9.37481 19.3252 8.63083 19.3227 7.9794 19.0345L1.75274 16.2651C0.728744 15.8073 0.0625 14.7932 0.0625 13.6666C0.0625 13.2869 0.370304 12.9791 0.75 12.9791Z" fill="#F1F1F1"/>
</svg>
